# xmcd
#
# Track frame offsets:
#	150
#	17941
#	37363
#	53490
#	76620
#	105787
#	127532
#	159144
#	175394
#	194444
#	216758
#	239225
#	262563
#	281259
#	303367
#	326525
#
# Disc length: 4795 seconds
#
# Revision: 2
# Processed by: cddbd v1.5.2PL0 Copyright (c) Steve Scherf et al.
# Submitted via: EZCDAudioConverter 6.0.0.1
#
DISCID=c412b910
DTITLE=Various Artist - Akella Presents - Modern Electric Blues - vol.14  CD1
DTITLE=New!
DYEAR=2013
DGENRE=Blues
TTITLE0=ALBERT CUMMINGS - Workin' Man Blues
TTITLE1=WALTER TROUT - Sweet As A Flower
TTITLE2=JOE BONAMASSA - You Upset Me Baby
TTITLE3=ROB ORLEMANS - Jake's Mojo
TTITLE4=BILLY PRICE and FRED CHAPELLIER - Under The Influence
TTITLE5=ROBERT FOSSEN - Loan Me A Trainfare
TTITLE6=NUNO MINDELIS - Talk About The Blues
TTITLE7=JAMES SOLBERG - Let's Straighten It Out
TTITLE8=BLUES COMPANY - Out Of My Mind
TTITLE9=TONY JOE WHITE - I Want To Be With You
TTITLE10=JEFF PITCHELL - Out In The Cold
TTITLE11=FREDDIE and The SCREAMERS - Her Love Is Killing Me
TTITLE12=Dr. GOODVIBE - The New Bohemia
TTITLE13=ROLLING STONES - Rain Fall Down
TTITLE14=P. BADIKOUTHIS - Can't Judge A Book
TTITLE15=ERIC CLAPTON - River Of Tears
EXTD=
EXTT0=
EXTT1=
EXTT2=
EXTT3=
EXTT4=
EXTT5=
EXTT6=
EXTT7=
EXTT8=
EXTT9=
EXTT10=
EXTT11=
EXTT12=
EXTT13=
EXTT14=
EXTT15=
PLAYORDER=
